HIERARCHY
ROOT Hips
{
	OFFSET 0.00000 0.00000 0.00000
	CHANNELS 6 Xposition Yposition Zposition Zrotation Yrotation Xrotation 
	JOINT LHipJoint
	{
		OFFSET 0 0 0
		CHANNELS 3 Zrotation Yrotation Xrotation
		JOINT LeftHip
		{
			OFFSET 1.37959 -1.78713 0.86582
			CHANNELS 3 Zrotation Yrotation Xrotation
			JOINT LeftKnee
			{
				OFFSET 2.54611 -6.99539 0.00000
				CHANNELS 3 Zrotation Yrotation Xrotation
				JOINT LeftAnkle
				{
					OFFSET 2.59951 -7.14211 0.00000
					CHANNELS 3 Zrotation Yrotation Xrotation
					JOINT LeftToe
					{
						OFFSET 0.18493 -0.50810 1.96120
						CHANNELS 3 Zrotation Yrotation Xrotation
						End Site
						{
							OFFSET 0.00000 -0.00000 1.02054
						}
					}
				}
			}
		}
	}
	JOINT RHipJoint
	{
		OFFSET 0 0 0
		CHANNELS 3 Zrotation Yrotation Xrotation
		JOINT RightHip
		{
			OFFSET -1.33564 -1.78713 0.86582
			CHANNELS 3 Zrotation Yrotation Xrotation
			JOINT RightKnee
			{
				OFFSET -2.52705 -6.94302 0.00000
				CHANNELS 3 Zrotation Yrotation Xrotation
				JOINT RightAnkle
				{
					OFFSET -2.55964 -7.03257 0.00000
					CHANNELS 3 Zrotation Yrotation Xrotation
					JOINT RightToe
					{
						OFFSET -0.25804 -0.70896 2.12109
						CHANNELS 3 Zrotation Yrotation Xrotation
						End Site
						{
							OFFSET -0.00000 -0.00000 1.11821
						}
					}
				}
			}
		}
	}
	JOINT lowerback
	{
		OFFSET 0 0 0
		CHANNELS 3 Zrotation Yrotation Xrotation
		JOINT Chest
		{
			OFFSET -0.02031 2.24248 -0.18900
			CHANNELS 3 Zrotation Yrotation Xrotation
			JOINT Chest2
			{
				OFFSET 0.08342 2.24689 -0.03799
				CHANNELS 3 Zrotation Yrotation Xrotation
				JOINT lowerneck
				{
					OFFSET 0 0 0
					CHANNELS 3 Zrotation Yrotation Xrotation
					JOINT Neck
					{
						OFFSET -0.11607 1.55844 0.24628
						CHANNELS 3 Zrotation Yrotation Xrotation
						JOINT Head
						{
							OFFSET 0.06877 1.60174 -0.17013
							CHANNELS 3 Zrotation Yrotation Xrotation
							End Site
							{
								OFFSET 0.03358 1.61266 -0.08543
							}
						}
					}
				}
				JOINT LeftCollar
				{
					OFFSET 0 0 0
					CHANNELS 3 Zrotation Yrotation Xrotation
					JOINT LeftShoulder
					{
						OFFSET 3.47537 0.55866 -0.72348
CHANNELS 3 Zrotation Xrotation Yrotation
						JOINT LeftElbow
						{
OFFSET 0 -5.381540 0.000000
CHANNELS 3 Zrotation Xrotation Yrotation
							JOINT LeftWrist
							{
OFFSET 0 -3.333120 0.000000
CHANNELS 3 Zrotation Xrotation Yrotation
								JOINT lhand
								{
									OFFSET 0 0 0
CHANNELS 3 Zrotation Xrotation Yrotation
									JOINT LFingers
									{
OFFSET 0 -0.710790 0.000000
CHANNELS 3 Zrotation Xrotation Yrotation
										End Site
										{
OFFSET 0 -0.573060 0.000000
										}
									}
								}
								JOINT LThumb
								{
OFFSET 0 0.000000 0.000000
CHANNELS 3 Zrotation Xrotation Yrotation
									End Site
									{
OFFSET 0 -0.581810 0.581810
									}
								}
							}
						}
					}
				}
				JOINT RightCollar
				{
					OFFSET 0 0 0
					CHANNELS 3 Zrotation Yrotation Xrotation
					JOINT RightShoulder
					{
						OFFSET -3.27844 0.90739 -0.35708
CHANNELS 3 Zrotation Xrotation Yrotation
						JOINT RightElbow
						{
OFFSET 0 -5.169540 0.000000
CHANNELS 3 Zrotation Xrotation Yrotation
							JOINT RightWrist
							{
OFFSET 0 -3.382870 0.000000
CHANNELS 3 Zrotation Xrotation Yrotation
								JOINT rhand
								{
									OFFSET 0 0 0
CHANNELS 3 Zrotation Xrotation Yrotation
									JOINT RFingers
									{
OFFSET 0 -0.817970 0.000000
CHANNELS 3 Zrotation Xrotation Yrotation
										End Site
										{
OFFSET 0 -0.659470 0.000000
										}
									}
								}
								JOINT RThumb
								{
OFFSET 0 0.000000 0.000000
CHANNELS 3 Zrotation Xrotation Yrotation
									End Site
									{
OFFSET 0 -0.669530 0.669530
									}
								}
							}
						}
					}
				}
			}
		}
	}
}
MOTION
Frames: 10
Frame Time: 0.008333333333333333
-5.770543 15.058543 -14.897039 -331.995230 78.634050 -686.651664 0.000000 0.000000 0.000000 -7.310411 3.249464 -24.926594 8.291612 16.329604 53.606450 3.137694 -11.059027 -31.992786 5.713803 -14.145181 -43.822054 0.000000 0.000000 0.000000 -6.221863 -1.641393 -46.082004 -15.537273 -19.515538 76.849914 -1.560107 -7.207491 -27.156898 -0.364938 -3.879946 10.739316 -8.273982 1.591928 18.260003 0.911289 0.730539 3.214958 5.519030 0.614724 -6.851160 -14.060144 -8.287639 -13.420113 16.184920 -10.135945 4.557587 6.469128 -4.380505 5.168712 0.000000 0.000000 0.000000 3.103764 -13.789715 -52.922836 25.431574 -36.641805 8.546117 6.915018 9.462371 -28.173052 0.000000 0.000000 0.000000 -7.125000 0.000000 0.000000 -25.594220 56.430921 7.517135 0.000000 0.000000 0.000000 -19.971752 -23.061413 22.810028 -44.768767 -50.654621 -22.059795 -14.009433 -29.138581 -15.548216 0.000000 0.000000 0.000000 7.125000 0.000000 0.000000 9.169341 14.123462 6.743561
-5.773492 15.069693 -14.831082 -333.304918 77.474873 -687.974825 0.000000 0.000000 0.000000 -7.532832 3.780798 -24.343708 8.112247 16.200957 52.965474 3.101674 -10.552170 -31.803799 5.691934 -14.122938 -43.732309 0.000000 0.000000 0.000000 -6.501940 -1.750259 -46.445444 -15.940838 -19.599959 78.055124 -1.449262 -6.783924 -26.086555 -0.295124 -3.471098 9.595120 -8.635229 1.484487 17.976941 0.755858 0.530201 3.196959 5.603567 0.515627 -6.686494 -14.085536 -8.174197 -14.032420 16.169286 -9.929549 4.836699 6.480066 -4.249725 5.323494 0.000000 0.000000 0.000000 3.012237 -15.046482 -54.272072 25.574041 -36.784889 8.631430 6.986609 9.363324 -28.144637 0.000000 0.000000 0.000000 -7.125000 0.000000 0.000000 -25.503468 56.420023 7.481031 0.000000 0.000000 0.000000 -19.429481 -21.243796 23.614198 -44.248814 -50.394604 -21.658601 -14.806446 -29.633509 -14.961727 0.000000 0.000000 0.000000 7.125000 0.000000 0.000000 8.628716 14.649698 6.238580
-5.771970 15.083927 -14.766986 -336.218694 76.699259 -690.899937 0.000000 0.000000 0.000000 -7.125564 4.262003 -23.662418 7.892311 16.039012 52.173107 3.054623 -9.856216 -31.562808 5.800229 -14.231820 -44.174465 0.000000 0.000000 0.000000 -6.125564 -1.886309 -46.556142 -16.309711 -19.669888 79.152963 -1.313172 -6.082394 -24.613770 -0.122715 -2.196871 6.052229 -8.229490 1.217109 17.852763 0.663194 0.252724 3.137096 5.335319 0.368907 -6.640536 -13.873212 -8.082900 -14.763545 15.814679 -9.762590 5.255621 6.332974 -4.146816 5.512818 0.000000 0.000000 0.000000 3.045870 -16.063238 -55.544129 25.906522 -37.115677 8.831453 7.104256 9.172144 -28.379303 0.000000 0.000000 0.000000 -7.125000 0.000000 0.000000 -25.557185 56.654045 7.646386 0.000000 0.000000 0.000000 -18.691443 -19.453136 24.435713 -43.499954 -50.011428 -21.083288 -15.394749 -29.687842 -14.780560 0.000000 0.000000 0.000000 7.125000 0.000000 0.000000 8.229258 14.783529 5.919390
-5.769707 15.110116 -14.686456 -339.013366 75.984011 -693.700918 0.000000 0.000000 0.000000 -6.595974 4.768303 -22.878655 7.623935 15.834664 51.194893 2.989107 -9.357902 -31.222794 5.880994 -14.312012 -44.502162 0.000000 0.000000 0.000000 -5.543106 -1.981381 -46.586448 -16.648661 -19.728084 80.158458 -1.189071 -5.164876 -23.062676 -0.025681 -0.967297 2.659315 -7.970273 0.884847 17.780891 0.745640 -0.134758 3.021569 5.367285 0.177618 -6.669071 -13.673002 -7.819231 -15.453559 15.255230 -9.335184 5.643560 6.155642 -3.935444 5.635437 0.000000 0.000000 0.000000 2.915600 -16.821572 -56.235349 26.396353 -37.596733 9.128671 7.057268 8.766197 -28.399554 0.000000 0.000000 0.000000 -7.125000 0.000000 0.000000 -25.618604 56.662654 7.672088 0.000000 0.000000 0.000000 -18.022676 -17.727504 25.487908 -42.824424 -49.656281 -20.567046 -15.546330 -29.588903 -14.868142 0.000000 0.000000 0.000000 7.125000 0.000000 0.000000 8.127585 14.680892 5.862804
-5.760912 15.139244 -14.590901 -340.396476 74.936924 -695.300169 0.000000 0.000000 0.000000 -6.459060 5.458816 -21.699222 7.304692 15.581879 50.015251 2.963604 -8.866605 -31.104727 6.016599 -14.443098 -45.045854 0.000000 0.000000 0.000000 -5.303795 -1.940780 -46.331937 -16.956994 -19.776110 81.070851 -1.101340 -3.821990 -21.549931 -0.002772 -0.182002 0.500078 -8.296351 0.704686 17.656981 0.803630 -0.414026 3.091518 5.678871 0.038783 -6.478985 -13.540811 -7.552577 -16.275581 14.771182 -8.873956 5.968005 6.017912 -3.702166 5.766499 0.000000 0.000000 0.000000 2.646076 -17.644187 -56.524136 26.943905 -38.124132 9.465027 7.032417 8.223215 -28.011864 0.000000 0.000000 0.000000 -7.125000 0.000000 0.000000 -25.364165 56.310028 7.367934 0.000000 0.000000 0.000000 -17.638516 -16.360492 26.214824 -42.095729 -49.262118 -20.013495 -16.043582 -29.604487 -14.763947 0.000000 0.000000 0.000000 7.125000 0.000000 0.000000 7.789257 14.743345 5.603761
-5.751022 15.165916 -14.483939 -341.907404 73.746034 -696.908666 0.000000 0.000000 0.000000 -6.258016 6.258122 -20.531747 6.952600 15.290198 48.691982 2.988258 -8.320270 -31.270208 6.280410 -14.694064 -46.095896 0.000000 0.000000 0.000000 -4.919536 -1.814904 -46.172527 -17.214152 -19.812603 81.830194 -0.982281 -2.662901 -19.849052 -0.010965 0.551790 -1.516619 -8.699078 0.580494 17.391278 0.837740 -0.623239 3.152494 5.988254 -0.069172 -6.227914 -13.226912 -7.321033 -17.103722 14.349999 -8.504598 6.280868 5.860902 -3.506326 5.907606 0.000000 0.000000 0.000000 2.594432 -18.340027 -56.677460 27.703049 -38.838681 9.937899 7.255109 7.506200 -27.803113 0.000000 0.000000 0.000000 -7.125000 0.000000 0.000000 -24.997023 56.167365 7.162211 0.000000 0.000000 0.000000 -17.294510 -15.150832 26.703123 -41.269897 -48.803082 -19.389824 -16.503875 -29.558177 -14.702968 0.000000 0.000000 0.000000 7.125000 0.000000 0.000000 7.476277 14.764375 5.370763
-5.746338 15.191109 -14.371185 -342.233843 72.406783 -697.102017 0.000000 0.000000 0.000000 -6.468467 6.915381 -19.612919 6.578283 14.964364 47.257329 2.904448 -7.688177 -30.849363 6.221495 -14.638308 -45.861953 0.000000 0.000000 0.000000 -4.794543 -1.801249 -46.388608 -17.417038 -19.839111 82.428405 -0.800399 -2.224370 -17.817198 -0.108365 1.939440 -5.343939 -9.530286 0.443474 16.962867 0.852822 -0.920828 3.065878 6.537378 -0.209223 -6.021045 -12.778986 -6.961275 -17.905817 13.743165 -7.973661 6.589230 5.643021 -3.245760 6.008437 0.000000 0.000000 0.000000 2.407464 -18.912045 -56.288873 28.451899 -39.527554 10.410545 7.325663 7.025503 -28.076143 0.000000 0.000000 0.000000 -7.125000 0.000000 0.000000 -25.121886 56.426839 7.364132 0.000000 0.000000 0.000000 -17.119706 -14.021710 27.172602 -40.495443 -48.359356 -18.809084 -16.352820 -29.425054 -14.915431 0.000000 0.000000 0.000000 7.125000 0.000000 0.000000 7.582109 14.560219 5.482040
-5.736696 15.217668 -14.257831 -341.489057 71.109439 -696.133167 0.000000 0.000000 0.000000 -7.081824 7.252311 -18.740416 6.192993 14.610868 45.747865 2.738767 -6.537883 -30.022140 6.010220 -14.437915 -45.022128 0.000000 0.000000 0.000000 -4.918084 -2.065980 -46.581080 -17.513127 -19.851060 82.711579 -0.634515 -2.001137 -15.886036 -0.356488 3.753606 -10.393623 -10.390234 0.265200 16.423928 0.749369 -1.273652 2.897858 6.978789 -0.374676 -5.826556 -12.523012 -6.640039 -18.938368 13.252270 -7.472129 7.231240 5.493154 -2.988895 6.273608 0.000000 0.000000 0.000000 2.104590 -19.486761 -55.735539 29.059609 -40.072453 10.799422 7.104657 6.786004 -28.682414 0.000000 0.000000 0.000000 -7.125000 0.000000 0.000000 -25.781312 56.924811 7.894447 0.000000 0.000000 0.000000 -17.138948 -13.013597 27.585664 -39.531355 -47.787128 -18.092163 -15.371569 -29.193037 -15.135585 0.000000 0.000000 0.000000 7.125000 0.000000 0.000000 8.248512 14.423028 5.998167
-5.721969 15.253607 -14.131498 -342.109145 69.985961 -696.522663 0.000000 0.000000 0.000000 -7.120683 7.514633 -17.657494 5.799537 14.229348 44.168193 2.604889 -5.155427 -29.416838 6.032567 -14.459727 -45.112054 0.000000 0.000000 0.000000 -4.420950 -2.120632 -46.280355 -17.438595 -19.841927 82.491934 -0.579365 -1.438386 -14.972848 -0.553933 4.759884 -13.226356 -10.585188 0.063382 15.955300 0.666095 -1.545643 2.712773 7.042945 -0.508262 -5.716810 -12.813870 -6.374260 -19.810986 13.348860 -7.004578 7.868896 5.633399 -2.729617 6.569146 0.000000 0.000000 0.000000 2.144969 -19.901476 -55.285406 29.918370 -40.820858 11.357090 6.960089 6.324456 -29.338126 0.000000 0.000000 0.000000 -7.125000 0.000000 0.000000 -26.419200 57.478747 8.469053 0.000000 0.000000 0.000000 -17.145159 -12.021312 27.930500 -38.413142 -47.098655 -17.268354 -13.919362 -28.569074 -15.124152 0.000000 0.000000 0.000000 7.125000 0.000000 0.000000 9.228376 14.559001 6.701060
-5.703950 15.299157 -13.991893 -344.271469 69.109354 -698.402850 0.000000 0.000000 0.000000 -6.366024 7.732830 -16.472303 5.418734 13.838965 42.599004 2.479739 -4.231943 -28.811767 6.116314 -14.540075 -45.446779 0.000000 0.000000 0.000000 -3.083292 -1.989328 -45.523574 -17.197082 -19.810390 81.779767 -0.666353 -0.494525 -15.607659 -0.886972 5.981370 -16.736655 -10.095720 -0.222356 15.506760 0.610673 -1.811246 2.563690 6.741931 -0.653149 -5.601269 -12.802866 -5.900924 -20.209163 13.433977 -6.331691 7.945239 5.748612 -2.383129 6.570389 0.000000 0.000000 0.000000 2.550199 -20.314876 -54.470638 30.808274 -41.574831 11.942922 6.690820 5.496651 -29.572149 0.000000 0.000000 0.000000 -7.125000 0.000000 0.000000 -26.866549 57.629291 8.725032 0.000000 0.000000 0.000000 -16.749985 -10.996518 27.805401 -37.627702 -46.599217 -16.694742 -12.313614 -27.025534 -15.212604 0.000000 0.000000 0.000000 7.125000 0.000000 0.000000 10.308760 14.598964 7.502725
